<svg width="18" height="17" viewBox="0 0 18 17" fill="none" xmlns="http://www.w3.org/2000/svg">
<g id="Group 2">
<path id="Vector" d="M15.2036 17C16.2946 17 17.1791 16.1156 17.1791 15.0246C17.1791 13.9336 16.2946 13.0492 15.2036 13.0492C14.1126 13.0492 13.2282 13.9336 13.2282 15.0246C13.2282 16.1156 14.1126 17 15.2036 17Z" fill="#DAB34C"/>
<path id="Vector_2" d="M15.2036 10.4754C16.2946 10.4754 17.1791 9.59094 17.1791 8.49995C17.1791 7.40896 16.2946 6.52454 15.2036 6.52454C14.1126 6.52454 13.2282 7.40896 13.2282 8.49995C13.2282 9.59094 14.1126 10.4754 15.2036 10.4754Z" fill="#DAB34C"/>
<path id="Vector_3" d="M8.41993 17C9.51092 17 10.3953 16.1156 10.3953 15.0246C10.3953 13.9336 9.51092 13.0492 8.41993 13.0492C7.32894 13.0492 6.44452 13.9336 6.44452 15.0246C6.44452 16.1156 7.32894 17 8.41993 17Z" fill="#DAB34C"/>
<path id="Vector_4" d="M8.41993 10.4754C9.51092 10.4754 10.3953 9.59094 10.3953 8.49995C10.3953 7.40896 9.51092 6.52454 8.41993 6.52454C7.32894 6.52454 6.44452 7.40896 6.44452 8.49995C6.44452 9.59094 7.32894 10.4754 8.41993 10.4754Z" fill="#DAB34C"/>
<path id="Vector_5" d="M1.97541 17C3.06641 17 3.95083 16.1156 3.95083 15.0246C3.95083 13.9336 3.06641 13.0492 1.97541 13.0492C0.884423 13.0492 0 13.9336 0 15.0246C0 16.1156 0.884423 17 1.97541 17Z" fill="#DAB34C"/>
<path id="Vector_6" d="M1.97541 10.4754C3.06641 10.4754 3.95083 9.59094 3.95083 8.49995C3.95083 7.40896 3.06641 6.52454 1.97541 6.52454C0.884423 6.52454 0 7.40896 0 8.49995C0 9.59094 0.884423 10.4754 1.97541 10.4754Z" fill="#DAB34C"/>
<path id="Vector_7" d="M15.0436 3.95083C16.1346 3.95083 17.019 3.06641 17.019 1.97541C17.019 0.884423 16.1346 0 15.0436 0C13.9526 0 13.0681 0.884423 13.0681 1.97541C13.0681 3.06641 13.9526 3.95083 15.0436 3.95083Z" fill="#DAB34C"/>
<path id="Vector_8" d="M8.51898 3.95083C9.60997 3.95083 10.4944 3.06641 10.4944 1.97541C10.4944 0.884423 9.60997 0 8.51898 0C7.42799 0 6.54356 0.884423 6.54356 1.97541C6.54356 3.06641 7.42799 3.95083 8.51898 3.95083Z" fill="#DAB34C"/>
<path id="Vector_9" d="M1.9942 3.95083C3.08519 3.95083 3.96961 3.06641 3.96961 1.97541C3.96961 0.884423 3.08519 0 1.9942 0C0.903207 0 0.0187836 0.884423 0.0187836 1.97541C0.0187836 3.06641 0.903207 3.95083 1.9942 3.95083Z" fill="#DAB34C"/>
</g>
</svg>
