<svg width="17" height="17" viewBox="0 0 17 17" fill="none" xmlns="http://www.w3.org/2000/svg">
<g id="ic:round-copyright">
<path id="Vector" d="M7.14033 7.69283C7.17574 7.45908 7.25366 7.25366 7.35283 7.07658C7.45199 6.89949 7.59366 6.75074 7.77074 6.63741C7.94074 6.53116 8.15324 6.48158 8.41533 6.47449C8.57824 6.48158 8.72699 6.50991 8.86158 6.56658C9.00324 6.63033 9.13074 6.71533 9.22991 6.82158C9.32908 6.92783 9.40699 7.05533 9.47074 7.19699C9.53449 7.33866 9.56283 7.49449 9.56991 7.65033H10.8378C10.8237 7.31741 10.7599 7.01283 10.6395 6.73658C10.5191 6.46033 10.3562 6.21949 10.1437 6.02116C9.93116 5.82283 9.67616 5.66699 9.37866 5.55366C9.08116 5.44033 8.75533 5.39074 8.39408 5.39074C7.93366 5.39074 7.52991 5.46866 7.18991 5.63158C6.84991 5.79449 6.56658 6.00699 6.33991 6.28324C6.11324 6.55949 5.94324 6.87824 5.83699 7.24658C5.73074 7.61491 5.66699 7.99741 5.66699 8.40824V8.59949C5.66699 9.01033 5.72366 9.39283 5.82991 9.76116C5.93616 10.1295 6.10616 10.4482 6.33283 10.7174C6.55949 10.9866 6.84283 11.2062 7.18283 11.362C7.52283 11.5178 7.92658 11.6028 8.38699 11.6028C8.71991 11.6028 9.03158 11.5462 9.32199 11.4399C9.61241 11.3337 9.86741 11.1849 10.087 10.9937C10.3066 10.8024 10.4837 10.5828 10.6112 10.3278C10.7387 10.0728 10.8166 9.80366 10.8237 9.51324H9.55574C9.54866 9.66199 9.51324 9.79658 9.44949 9.92408C9.38574 10.0516 9.30074 10.1578 9.19449 10.2499C9.08824 10.342 8.96783 10.4128 8.82616 10.4624C8.69158 10.512 8.54991 10.5262 8.40116 10.5332C8.14616 10.5262 7.93366 10.4766 7.77074 10.3703C7.59366 10.257 7.45199 10.1082 7.35283 9.93116C7.25366 9.75408 7.17574 9.54158 7.14033 9.30783C7.10491 9.07408 7.08366 8.83324 7.08366 8.59949V8.40824C7.08366 8.16033 7.10491 7.92658 7.14033 7.69283ZM8.50033 1.41699C4.59033 1.41699 1.41699 4.59033 1.41699 8.50033C1.41699 12.4103 4.59033 15.5837 8.50033 15.5837C12.4103 15.5837 15.5837 12.4103 15.5837 8.50033C15.5837 4.59033 12.4103 1.41699 8.50033 1.41699ZM8.50033 14.167C5.37658 14.167 2.83366 11.6241 2.83366 8.50033C2.83366 5.37658 5.37658 2.83366 8.50033 2.83366C11.6241 2.83366 14.167 5.37658 14.167 8.50033C14.167 11.6241 11.6241 14.167 8.50033 14.167Z" fill="#887C8B"/>
</g>
</svg>
