<svg width="23" height="24" viewBox="0 0 23 24" fill="none" xmlns="http://www.w3.org/2000/svg">
<g id="logos:facebook" clip-path="url(#clip0_681_7032)">
<path id="Vector" d="M22.7469 11.9496C22.7469 5.76265 17.7313 0.74707 11.5443 0.74707C5.35738 0.74707 0.341797 5.76257 0.341797 11.9496C0.341797 17.5411 4.43842 22.1757 9.79393 23.016V15.1878H6.94954V11.9496H9.79393V9.48154C9.79393 6.67391 11.4664 5.12306 14.0253 5.12306C15.251 5.12306 16.533 5.34186 16.533 5.34186V8.09873H15.1204C13.7286 8.09873 13.2947 8.96229 13.2947 9.84825V11.9496H16.4017L15.905 15.1878H13.2947V23.016C18.6502 22.1757 22.7469 17.5412 22.7469 11.9496Z" fill="#1877F2"/>
<path id="Vector_2" d="M15.9047 15.1878L16.4014 11.9496H13.2944V9.84824C13.2944 8.96219 13.7284 8.09872 15.1201 8.09872H16.5326V5.34185C16.5326 5.34185 15.2506 5.12305 14.0249 5.12305C11.4661 5.12305 9.79361 6.6739 9.79361 9.48153V11.9496H6.94922V15.1878H9.79361V23.016C10.3727 23.1068 10.9579 23.1523 11.544 23.1521C12.1301 23.1523 12.7154 23.1068 13.2944 23.016V15.1878H15.9047Z" fill="white"/>
</g>
<defs>
<clipPath id="clip0_681_7032">
<rect width="22.4051" height="22.4051" fill="white" transform="translate(0.341797 0.74707)"/>
</clipPath>
</defs>
</svg>
