<svg width="16" height="19" viewBox="0 0 16 19" fill="none" xmlns="http://www.w3.org/2000/svg">
<g id="Group">
<path id="Vector" d="M12.0394 8.36821C12.0745 8.38012 12.1105 8.38574 12.1456 8.38574C12.2835 8.38574 12.4121 8.29911 12.4587 8.16122C12.5622 7.85768 12.8932 7.69467 13.1967 7.7975C13.8455 8.01706 14.5534 7.66888 14.7733 7.0198C14.8322 6.84719 14.7396 6.65905 14.5667 6.60019C14.3931 6.54167 14.2059 6.63425 14.1471 6.80719C14.0439 7.11106 13.7129 7.27407 13.409 7.17091C12.7613 6.95234 12.0527 7.29986 11.8325 7.94861C11.7739 8.12121 11.8665 8.30936 12.0394 8.36821Z" fill="black"/>
<path id="Vector_2" d="M12.8218 6.06424C12.8568 6.07615 12.8929 6.08177 12.9279 6.08177C13.0658 6.08177 13.1944 5.99514 13.2411 5.85725C13.291 5.71011 13.3951 5.59107 13.5347 5.5223C13.6742 5.45352 13.8319 5.4436 13.9791 5.49353C14.6278 5.71309 15.3354 5.3649 15.5556 4.71549C15.6145 4.54289 15.5216 4.35475 15.349 4.29589C15.1761 4.23637 14.9882 4.32995 14.9297 4.50288C14.8266 4.80709 14.4962 4.9701 14.1917 4.86694C13.8769 4.76013 13.54 4.78196 13.2424 4.9291C12.9448 5.07591 12.7219 5.33019 12.6151 5.64464C12.5559 5.81757 12.6488 6.00539 12.8218 6.06424Z" fill="black"/>
<path id="Vector_3" d="M13.6035 3.76029C13.6388 3.77219 13.6745 3.77781 13.7099 3.77781C13.8478 3.77781 13.9764 3.69118 14.0231 3.5533C14.0991 3.32911 14.3441 3.20842 14.568 3.28447C14.8441 3.37805 15.14 3.35887 15.4016 3.23025C15.6628 3.10129 15.8582 2.87843 15.9521 2.60233C16.011 2.42973 15.9184 2.24158 15.7454 2.18273C15.5719 2.12354 15.3847 2.21678 15.3258 2.38972C15.2888 2.4985 15.2118 2.58646 15.1089 2.63705C15.0061 2.68764 14.8897 2.69524 14.7806 2.65788C14.2112 2.46577 13.5899 2.7713 13.3968 3.34035C13.3383 3.51362 13.4305 3.70143 13.6035 3.76029Z" fill="black"/>
<path id="Vector_4" d="M13.9987 8.34382C13.9412 8.30447 13.8764 8.28199 13.8103 8.27339C14.4673 6.13834 14.8277 4.04661 14.8793 2.0544C14.8955 1.42781 14.5893 0.591249 13.9719 0.20405C13.6757 0.0178908 13.1903 -0.135534 12.56 0.18884C11.5724 0.698382 10.8661 2.19725 10.2987 3.40216C10.2659 3.4716 10.2339 3.53938 10.2021 3.6065C10.0768 3.03017 9.6959 2.53716 9.15428 2.27991C9.02665 1.66621 8.53992 1.18544 7.9282 1.06078C7.92159 1.02639 7.91333 0.992666 7.90308 0.958608C7.7771 0.528094 7.39717 0.20405 6.95773 0.151807C6.71007 0.122378 6.46472 0.17363 6.25508 0.296304C6.07653 0.196776 5.87615 0.143871 5.67048 0.143871C5.09547 0.143871 4.61238 0.544957 4.4864 1.08161C3.85782 1.25289 3.39689 1.82989 3.39193 2.50046C2.67474 2.68563 2.1523 3.33371 2.1523 4.10447C2.1523 4.30882 2.19065 4.51118 2.26439 4.70197C2.07823 4.93178 1.97507 5.21945 1.97507 5.52134C1.97507 5.70254 2.01243 5.87712 2.08286 6.03848C1.75253 5.67807 1.28763 5.38345 0.765525 5.40263C0.583003 5.40858 0.439498 5.56102 0.445119 5.74354C0.45074 5.92242 0.597552 6.06394 0.775445 6.06394C0.786687 6.06427 0.796938 6.06328 0.807519 6.06328C1.11734 6.06328 1.40535 6.26829 1.61498 6.50636C1.09056 6.65747 0.458345 6.90348 0.1634 7.45964C-0.0141627 7.79526 -0.0349939 8.20693 0.0833811 8.67844C0.0261776 8.774 -0.0052348 8.8851 0.000717016 9.00348L0.563494 17.0011C0.614746 18.0039 1.44139 18.7893 2.44526 18.7893H11.7271C12.731 18.7893 13.5576 18.0039 13.6086 17.007L14.1855 8.73135C14.1855 8.72937 14.1859 8.72738 14.1859 8.7254C14.1951 8.57296 14.1247 8.43045 13.9987 8.34382ZM10.4719 4.55218C10.6029 4.30783 10.7457 4.00495 10.8968 3.68388C11.3938 2.62842 12.075 1.18312 12.8629 0.776417C13.1506 0.628283 13.3983 0.625307 13.6205 0.763852C14.0037 1.00457 14.2292 1.61199 14.2183 2.03721C14.1677 3.99205 13.8106 6.0494 13.1565 8.15237C13.1351 8.22148 13.0874 8.36101 13.0197 8.55246L12.4562 8.80277C12.444 8.80839 12.4321 8.81434 12.4205 8.82162C12.2578 8.91916 12.0753 8.96744 11.8928 8.96942C11.7103 8.96744 11.5281 8.91916 11.3654 8.82162L11.1296 8.6801C10.8585 8.51741 10.5546 8.43607 10.2507 8.43607C10.2471 8.43607 10.2435 8.43673 10.2395 8.43673C9.93198 8.43475 9.62381 8.5151 9.34937 8.6801L9.11394 8.82162C8.98267 8.90032 8.83751 8.93867 8.6907 8.9552C8.69897 8.92644 8.70855 8.89833 8.71715 8.86989C8.80775 8.56205 8.90496 8.25851 9.00681 7.95728C9.04549 7.84288 9.08583 7.72913 9.12617 7.61571C9.21115 7.37665 9.3001 7.14056 9.39202 6.90613C9.43302 6.80131 9.47303 6.6955 9.51536 6.59167C9.80369 5.88836 10.1218 5.20622 10.4719 4.55218ZM6.25674 5.3365C6.29542 5.2869 6.33312 5.23863 6.36883 5.19167C6.36883 5.19101 6.36949 5.19035 6.36949 5.19035C6.39561 5.15563 6.41843 5.11959 6.43761 5.08355C6.51895 4.93045 6.53813 4.75851 6.50043 4.59054L7.88059 4.28865C7.88985 4.33097 7.89977 4.37297 7.91564 4.41198C7.97747 4.56343 8.08791 4.6894 8.24167 4.77736C8.29193 4.80513 8.3445 4.83291 8.39873 4.86168C8.44337 4.88515 8.48801 4.90962 8.53298 4.93409C8.55447 4.94566 8.57629 4.95724 8.59778 4.96914C8.63713 4.99129 8.67516 5.01576 8.71351 5.0399C8.74625 5.06007 8.77865 5.0809 8.8104 5.10306C8.8471 5.12852 8.88215 5.15662 8.9172 5.18506C8.94795 5.21019 8.97738 5.23763 9.00648 5.26574C9.03789 5.29649 9.06897 5.3279 9.09774 5.36229C9.14866 5.42313 9.19759 5.48629 9.2376 5.56201C9.09741 5.8715 8.96547 6.18728 8.83784 6.5057C8.818 6.55497 8.79684 6.60291 8.77733 6.65218C8.41493 6.7441 8.06477 6.91605 7.63227 7.22389C7.08735 7.61109 6.68163 7.71392 6.01304 7.61704L5.81233 6.69814C5.6761 6.07684 5.97138 5.70055 6.25674 5.3365ZM7.89646 3.32842C7.90506 3.32677 7.91366 3.32578 7.92225 3.32578C7.98475 3.32578 8.04327 3.37042 8.05683 3.43324C8.06741 3.48086 8.04956 3.51822 8.03765 3.53641C8.02608 3.55426 7.99996 3.58567 7.95267 3.59592L6.12613 3.99569C6.05338 4.01156 5.97932 3.96328 5.96344 3.8912C5.94757 3.81879 5.99552 3.74439 6.06793 3.72852L7.03841 3.51624L7.89646 3.32842ZM6.82778 8.44269C6.80265 8.44434 6.77719 8.445 6.75206 8.44765C6.57185 8.46583 6.39396 8.51146 6.22499 8.58751L6.16184 8.29819C6.25707 8.30613 6.35197 8.31406 6.44091 8.31406C7.01758 8.31406 7.48182 8.14245 8.0155 7.76286C8.18347 7.64316 8.33227 7.55256 8.47379 7.4775C8.44337 7.5638 8.41328 7.64977 8.38385 7.7364C8.36269 7.79857 8.33987 7.85974 8.31937 7.92223C8.22216 8.21652 8.12957 8.51312 8.04327 8.81236L7.82339 8.68076C7.55225 8.51808 7.24838 8.43673 6.9445 8.43673C6.94053 8.43673 6.93624 8.4374 6.93227 8.4374C6.89722 8.43673 6.8625 8.4407 6.82778 8.44269ZM2.8728 5.02337L3.08938 4.84481L2.94885 4.60244C2.8609 4.45034 2.81427 4.2784 2.81427 4.10447C2.81427 3.56881 3.23388 3.13201 3.76954 3.10953L4.17096 3.09266L4.07738 2.70183C4.06151 2.63636 4.05357 2.57188 4.05357 2.51071C4.05357 2.08482 4.38621 1.72606 4.81078 1.69366L5.1163 1.67051V1.34151C5.12589 1.04425 5.37091 0.805184 5.67081 0.805184C5.84342 0.805184 5.96708 0.88388 6.04016 0.950011L6.27195 1.15932L6.49415 0.939761C6.59599 0.839241 6.73586 0.792288 6.88002 0.808821C7.05726 0.829652 7.21729 0.967867 7.26888 1.14543C7.2864 1.20495 7.29136 1.26248 7.28442 1.32101L7.24573 1.69035H7.61805C8.0932 1.69035 8.49065 2.06168 8.52339 2.53584L8.53827 2.75308L8.7436 2.82516C9.26042 3.00669 9.60034 3.49574 9.58876 4.04297C9.5838 4.27675 9.50841 4.50192 9.37185 4.69932C9.15064 4.51151 8.91224 4.38487 8.71186 4.27939C8.65995 4.25195 8.60969 4.22549 8.5591 4.19739C8.54488 4.18945 8.52769 4.17556 8.52173 4.14085C8.5138 4.09323 8.53165 4.03603 8.56769 3.99403C8.71186 3.82672 8.76973 3.59857 8.7231 3.38331L8.68309 3.20112C8.64308 3.01728 8.53331 2.86021 8.37459 2.75837C8.21621 2.65686 8.02773 2.6228 7.84422 2.66314L7.7556 2.68265C7.75461 2.68298 7.75362 2.68265 7.75263 2.68298L6.78215 2.89526L5.83515 3.10192C5.65164 3.14193 5.49457 3.25138 5.39273 3.41043C5.29089 3.56881 5.25716 3.75762 5.29717 3.94113L5.31701 4.03107V4.03206C5.31701 4.03206 5.31734 4.03272 5.31734 4.03338L5.33685 4.12299C5.3848 4.34321 5.53789 4.52871 5.74587 4.61798C5.79746 4.64014 5.84044 4.68213 5.85532 4.72478C5.86392 4.74925 5.85896 4.76182 5.83978 4.79356V4.79389C5.80704 4.83787 5.77166 4.88251 5.73562 4.92847C5.69925 4.97476 5.66156 5.02337 5.6232 5.07363C5.6103 5.09049 5.59807 5.10802 5.58517 5.12521C5.55773 5.16257 5.53028 5.2006 5.50317 5.24028C5.48829 5.26177 5.47407 5.28393 5.45952 5.30641C5.43439 5.3451 5.41026 5.38511 5.38645 5.42611C5.37256 5.44991 5.359 5.47339 5.34578 5.49819C5.32098 5.54448 5.29849 5.59309 5.27634 5.64269C5.26675 5.66385 5.2565 5.68402 5.2479 5.70617C5.21881 5.77826 5.19301 5.85365 5.17251 5.933C5.16921 5.94557 5.16789 5.95913 5.16491 5.97202C5.14904 6.03948 5.13614 6.10924 5.12788 6.18199C5.12457 6.21109 5.12391 6.24151 5.12192 6.2716C5.11928 6.31061 5.11432 6.34765 5.11432 6.38832C5.113 6.38666 5.11167 6.38501 5.11035 6.38336C5.10572 6.37741 5.10109 6.37212 5.09679 6.36616C5.03926 6.29044 4.98173 6.22067 4.92386 6.15454C4.90567 6.13371 4.88716 6.11354 4.86864 6.0937C4.82003 6.04113 4.77143 5.99186 4.72249 5.94557C4.70662 5.93069 4.69075 5.91449 4.67455 5.89994C4.61271 5.84472 4.55055 5.79413 4.48806 5.74916C4.47053 5.73659 4.45268 5.72601 4.43515 5.71411C4.3882 5.6827 4.34124 5.6536 4.29363 5.62781C4.27048 5.61524 4.24767 5.60301 4.22419 5.59177C4.17492 5.56763 4.12533 5.54713 4.0754 5.52927C4.05886 5.52332 4.04233 5.51538 4.0258 5.51009C3.97157 5.4929 3.91701 5.47901 3.86212 5.46876C3.85584 5.46744 3.84956 5.4681 3.84328 5.46711C3.83203 5.46513 3.82112 5.46083 3.80988 5.45917C3.77152 5.45355 3.73515 5.45587 3.69746 5.45322C3.671 5.45157 3.64488 5.44595 3.61843 5.44595C3.61049 5.44595 3.60223 5.44793 3.59396 5.44793C3.54271 5.44859 3.49311 5.45454 3.44318 5.46083C3.41838 5.46413 3.39358 5.46612 3.36878 5.47075C3.30364 5.48265 3.24049 5.49918 3.17799 5.51902C3.16841 5.522 3.15915 5.52431 3.14956 5.52762C2.98489 5.5835 2.82882 5.66253 2.68267 5.75809C2.65258 5.68369 2.63671 5.60367 2.63671 5.52134C2.63704 5.3279 2.72301 5.14637 2.8728 5.02337ZM0.748331 7.76881C0.888199 7.50528 1.22778 7.30424 1.81734 7.1356C2.09311 7.0569 2.34904 6.90976 2.55669 6.71137C2.65093 6.6211 2.73921 6.54472 2.82452 6.47528C3.09103 6.2587 3.32084 6.14099 3.52882 6.1142C3.53345 6.11354 3.53808 6.11288 3.54271 6.11255C3.60851 6.10528 3.67233 6.10726 3.73416 6.11817C3.75036 6.12115 3.76689 6.12677 3.78343 6.13107C3.81418 6.13867 3.8446 6.14628 3.87535 6.15851C3.89519 6.16612 3.91503 6.17769 3.9352 6.18695C3.96397 6.20084 3.9924 6.2134 4.02117 6.23093C4.04365 6.24448 4.06614 6.26201 4.08862 6.27755C4.11541 6.2964 4.14219 6.31359 4.1693 6.33541C4.19443 6.35558 4.21956 6.38005 4.24469 6.40287C4.26982 6.42568 4.29495 6.44651 4.32008 6.47197C4.34786 6.50008 4.37596 6.53281 4.40407 6.56423C4.42688 6.58969 4.4497 6.61316 4.47285 6.64061C4.50426 6.6783 4.536 6.72129 4.56774 6.76295C4.58791 6.7894 4.60775 6.81321 4.62792 6.84132C4.66396 6.89158 4.70034 6.94746 4.73671 7.00301C4.75258 7.02748 4.76878 7.0493 4.78465 7.07443C4.83723 7.15742 4.89013 7.24571 4.94337 7.33962C5.18673 7.76914 5.26741 8.40367 5.1616 8.9562C5.14408 8.95454 5.12688 8.9519 5.10936 8.94925C4.98338 8.92776 4.86203 8.88742 4.75159 8.82129L4.51583 8.67977C4.24469 8.51708 3.94082 8.43574 3.63695 8.43574C3.63331 8.43574 3.62967 8.4364 3.6257 8.4364C3.31819 8.43442 3.01002 8.51477 2.73558 8.67977L2.62084 8.74854C2.42079 8.86857 2.19661 8.92908 1.97242 8.93107C1.74791 8.92908 1.52405 8.8689 1.324 8.74854L0.879271 8.48137L0.87894 8.48104C0.820414 8.44632 0.757259 8.42252 0.69245 8.41061C0.640537 8.14906 0.659054 7.93744 0.748331 7.76881ZM12.9499 16.967C12.9165 17.6177 12.3798 18.1276 11.7284 18.1276H2.44625C1.79453 18.1276 1.2582 17.6177 1.22448 16.9607L0.674264 9.14335L0.961935 9.31595C1.27374 9.5031 1.62391 9.59502 1.97308 9.59304C2.32259 9.59502 2.67242 9.5031 2.98423 9.31595L3.09897 9.24717C3.26165 9.1493 3.44384 9.10102 3.62636 9.09904C3.80889 9.10102 3.99108 9.1493 4.15409 9.24717L4.38985 9.38869C4.6881 9.56758 5.02603 9.64429 5.36 9.62611C5.38976 9.62478 5.41951 9.62478 5.4496 9.62214C5.45324 9.62181 5.45655 9.61982 5.46052 9.61949C5.68635 9.59403 5.90789 9.52294 6.11224 9.40655C6.13142 9.39961 6.15192 9.39927 6.16977 9.38869L6.40553 9.24717C6.56821 9.1493 6.75041 9.10102 6.93293 9.09904C7.11545 9.10102 7.29764 9.1493 7.46066 9.24717L7.69641 9.38869C7.94672 9.53848 8.22513 9.61619 8.5052 9.62776C8.51082 9.62809 8.51677 9.62875 8.52239 9.62875C8.61895 9.63173 8.7155 9.62875 8.81139 9.61519C8.86628 9.60825 8.91951 9.59436 8.97341 9.58213C8.99953 9.57585 9.02565 9.57022 9.05145 9.56262C9.19826 9.52195 9.34209 9.46871 9.47601 9.38836L9.71177 9.24684C9.87445 9.14897 10.0566 9.10069 10.2392 9.09871C10.4217 9.10069 10.6039 9.14897 10.7669 9.24684L11.0026 9.38836C11.2758 9.55204 11.5823 9.63239 11.8885 9.63107C11.8934 9.63107 11.8987 9.63206 11.9037 9.63206C12.2006 9.63206 12.4979 9.55468 12.7644 9.39928L13.4131 9.11094C13.427 9.10466 13.4369 9.09276 13.4498 9.08482L13.5004 9.06234L12.9499 16.967Z" fill="black"/>
<path id="Vector_5" d="M3.98433 14.2195H6.29892C6.48144 14.2195 6.62958 14.0717 6.62958 13.8889C6.62958 13.706 6.48144 13.5582 6.29892 13.5582H3.98433C3.80181 13.5582 3.65367 13.706 3.65367 13.8889C3.65367 14.0717 3.80181 14.2195 3.98433 14.2195Z" fill="black"/>
<path id="Vector_6" d="M3.98433 15.5422H6.96024C7.14276 15.5422 7.29089 15.3944 7.29089 15.2115C7.29089 15.0287 7.14276 14.8809 6.96024 14.8809H3.98433C3.80181 14.8809 3.65367 15.0287 3.65367 15.2115C3.65367 15.3944 3.80181 15.5422 3.98433 15.5422Z" fill="black"/>
<path id="Vector_7" d="M7.62155 16.2035H3.98433C3.80181 16.2035 3.65367 16.3513 3.65367 16.5341C3.65367 16.717 3.80181 16.8648 3.98433 16.8648H7.62155C7.80407 16.8648 7.9522 16.717 7.9522 16.5341C7.9522 16.3513 7.80407 16.2035 7.62155 16.2035Z" fill="black"/>
<path id="Vector_8" d="M9.60549 16.2035H8.94417C8.76165 16.2035 8.61352 16.3513 8.61352 16.5341C8.61352 16.717 8.76165 16.8648 8.94417 16.8648H9.60549C9.78801 16.8648 9.93614 16.717 9.93614 16.5341C9.93614 16.3513 9.78801 16.2035 9.60549 16.2035Z" fill="black"/>
</g>
</svg>
