<svg width="24" height="19" viewBox="0 0 24 19" fill="none" xmlns="http://www.w3.org/2000/svg">
<g id="Group 70">
<path id="Vector" d="M5.26181 18.1024V9.15725L2.48765 6.61932L0 5.21094V16.5238C0 17.3973 0.707671 18.1024 1.57858 18.1024H5.26181Z" fill="#4285F4"/>
<path id="Vector_2" d="M17.8896 18.1023H21.5729C22.4464 18.1023 23.1515 17.3945 23.1515 16.5237V5.21094L20.3338 6.82407L17.8896 9.15716V18.1023Z" fill="#34A853"/>
<path id="Vector_3" d="M5.26225 9.15769L4.88477 5.66256L5.26225 2.31738L11.5764 7.05303L17.8905 2.31738L18.3128 5.48196L17.8905 9.15769L11.5764 13.8933L5.26225 9.15769Z" fill="#EA4335"/>
<path id="Vector_4" d="M17.8896 2.31736V9.15766L23.1515 5.21135V3.1066C23.1515 1.15452 20.9231 0.0416888 19.3631 1.2124L17.8896 2.31736Z" fill="#FBBC04"/>
<path id="Vector_5" d="M0 5.21139L2.42001 7.02646L5.26181 9.15771V2.3174L3.78841 1.21244C2.22566 0.0416399 0 1.15456 0 3.10655V5.2113V5.21139Z" fill="#C5221F"/>
</g>
</svg>
