<svg width="17" height="17" viewBox="0 0 17 17" fill="none" xmlns="http://www.w3.org/2000/svg">
<g id="Group 1">
<path id="Vector" d="M16.9966 4.04437C16.9966 3.97414 16.9783 3.90512 16.9435 3.8441C16.9088 3.78308 16.8587 3.73216 16.7983 3.69634L10.7281 0.0542171C10.6666 0.018699 10.5968 0 10.5257 0C10.4547 0 10.3849 0.018699 10.3234 0.0542171L4.25319 3.69634C4.19128 3.73114 4.13961 3.78162 4.10338 3.84271C4.06715 3.9038 4.04764 3.97335 4.04681 4.04437V12.5427C4.04681 12.65 4.08944 12.7529 4.16533 12.8288C4.24123 12.9047 4.34416 12.9473 4.45149 12.9473H8.09361C8.20094 12.9473 8.30387 12.9047 8.37977 12.8288C8.45566 12.7529 8.49829 12.65 8.49829 12.5427V6.87713H12.5451V12.5427C12.5451 12.65 12.5877 12.7529 12.6636 12.8288C12.7395 12.9047 12.8425 12.9473 12.9498 12.9473H16.5919C16.6992 12.9473 16.8022 12.9047 16.8781 12.8288C16.954 12.7529 16.9966 12.65 16.9966 12.5427V4.04437ZM16.1872 12.138H13.3545V6.47245C13.3545 6.36513 13.3118 6.26219 13.2359 6.1863C13.16 6.11041 13.0571 6.06777 12.9498 6.06777H8.09361C7.98629 6.06777 7.88335 6.11041 7.80746 6.1863C7.73157 6.26219 7.68893 6.36513 7.68893 6.47245V12.138H4.85617V4.27504L10.5217 0.875719L16.1872 4.27504V12.138Z" fill="black"/>
<path id="Vector_2" d="M4.85617 16.1848H14.6413C14.7368 16.4548 14.9247 16.6823 15.1717 16.8272C15.4187 16.9721 15.709 17.0251 15.9913 16.9766C16.2735 16.9282 16.5296 16.7815 16.7142 16.5626C16.8988 16.3436 17 16.0665 17 15.7801C17 15.4937 16.8988 15.2165 16.7142 14.9976C16.5296 14.7786 16.2735 14.6319 15.9913 14.5835C15.709 14.5351 15.4187 14.588 15.1717 14.7329C14.9247 14.8778 14.7368 15.1054 14.6413 15.3754H5.26085V14.9707C5.26085 14.6487 5.13294 14.3399 4.90526 14.1123C4.67759 13.8846 4.36879 13.7567 4.04681 13.7567C3.72482 13.7567 3.41603 13.8846 3.18835 14.1123C2.96067 14.3399 2.83276 14.6487 2.83276 14.9707V15.7801C2.83276 15.8874 2.79013 15.9903 2.71424 16.0662C2.63834 16.1421 2.53541 16.1848 2.42808 16.1848C2.32076 16.1848 2.21782 16.1421 2.14193 16.0662C2.06604 15.9903 2.0234 15.8874 2.0234 15.7801V8.9005C2.23806 8.9005 2.44392 8.81523 2.59571 8.66344C2.74749 8.51166 2.83276 8.30579 2.83276 8.09114V7.28177C2.82999 7.23808 2.82322 7.19473 2.81253 7.15228C3.08384 6.85601 3.23529 6.46945 3.23745 6.06773V5.25837C3.23745 5.15104 3.19481 5.04811 3.11892 4.97222C3.04303 4.89633 2.94009 4.85369 2.83276 4.85369V4.04433C2.83276 3.937 2.79013 3.83407 2.71424 3.75818C2.63834 3.68228 2.53541 3.63965 2.42808 3.63965C2.32076 3.63965 2.21782 3.68228 2.14193 3.75818C2.06604 3.83407 2.0234 3.937 2.0234 4.04433V4.85369H1.21404V4.04433C1.21404 3.937 1.17141 3.83407 1.09551 3.75818C1.01962 3.68228 0.916689 3.63965 0.809361 3.63965C0.702033 3.63965 0.599101 3.68228 0.523209 3.75818C0.447317 3.83407 0.404681 3.937 0.404681 4.04433V4.85369C0.297353 4.85369 0.194421 4.89633 0.118528 4.97222C0.042636 5.04811 0 5.15104 0 5.25837V6.06773C0.00215437 6.46945 0.153607 6.85601 0.424915 7.15228C0.414227 7.19473 0.407454 7.23808 0.404681 7.28177V8.09114C0.404681 8.30579 0.489953 8.51166 0.641737 8.66344C0.793522 8.81523 0.999386 8.9005 1.21404 8.9005V15.7801C1.21404 16.1021 1.34195 16.4109 1.56963 16.6385C1.7973 16.8662 2.1061 16.9941 2.42808 16.9941C2.75007 16.9941 3.05886 16.8662 3.28654 16.6385C3.51422 16.4109 3.64213 16.1021 3.64213 15.7801V14.9707C3.64213 14.8634 3.68476 14.7604 3.76065 14.6846C3.83655 14.6087 3.93948 14.566 4.04681 14.566C4.15414 14.566 4.25707 14.6087 4.33296 14.6846C4.40885 14.7604 4.45149 14.8634 4.45149 14.9707V15.7801C4.45149 15.8874 4.49412 15.9903 4.57002 16.0662C4.64591 16.1421 4.74884 16.1848 4.85617 16.1848ZM15.7825 15.3754C15.8626 15.3754 15.9408 15.3991 16.0074 15.4436C16.0739 15.4881 16.1258 15.5513 16.1564 15.6252C16.1871 15.6992 16.1951 15.7805 16.1795 15.859C16.1638 15.9375 16.1253 16.0096 16.0687 16.0662C16.0121 16.1228 15.94 16.1614 15.8615 16.177C15.783 16.1926 15.7016 16.1846 15.6277 16.1539C15.5537 16.1233 15.4905 16.0714 15.4461 16.0049C15.4016 15.9383 15.3779 15.8601 15.3779 15.7801C15.3779 15.6727 15.4205 15.5698 15.4964 15.4939C15.5723 15.418 15.6752 15.3754 15.7825 15.3754ZM0.809361 6.06773V5.66305H2.42808V6.06773C2.42808 6.28239 2.34281 6.48825 2.19103 6.64004C2.03924 6.79182 1.83338 6.87709 1.61872 6.87709C1.40407 6.87709 1.1982 6.79182 1.04642 6.64004C0.894633 6.48825 0.809361 6.28239 0.809361 6.06773ZM1.21404 8.09114V7.6298C1.47845 7.70603 1.759 7.70603 2.0234 7.6298V8.09114H1.21404Z" fill="black"/>
</g>
</svg>
