<svg width="24" height="24" viewBox="0 0 24 24" fill="none" xmlns="http://www.w3.org/2000/svg">
<g id="skill-icons:instagram" clip-path="url(#clip0_681_7026)">
<g id="Group">
<path id="Vector" d="M18.0914 0.74707H6.18869C3.28854 0.74707 0.9375 3.09811 0.9375 5.99826V17.9009C0.9375 20.8011 3.28854 23.1521 6.18869 23.1521H18.0914C20.9915 23.1521 23.3426 20.8011 23.3426 17.9009V5.99826C23.3426 3.09811 20.9915 0.74707 18.0914 0.74707Z" fill="url(#paint0_radial_681_7026)"/>
<path id="Vector_2" d="M18.0914 0.74707H6.18869C3.28854 0.74707 0.9375 3.09811 0.9375 5.99826V17.9009C0.9375 20.8011 3.28854 23.1521 6.18869 23.1521H18.0914C20.9915 23.1521 23.3426 20.8011 23.3426 17.9009V5.99826C23.3426 3.09811 20.9915 0.74707 18.0914 0.74707Z" fill="url(#paint1_radial_681_7026)"/>
<path id="Vector_3" d="M12.1405 3.19727C9.7636 3.19727 9.46524 3.20768 8.53176 3.25013C7.60002 3.29284 6.96402 3.44031 6.40757 3.65674C5.83186 3.88027 5.34359 4.17932 4.85715 4.66593C4.37028 5.15246 4.07122 5.64073 3.847 6.21617C3.62995 6.7728 3.4823 7.40907 3.44038 8.34037C3.39864 9.27394 3.3877 9.57238 3.3877 11.9493C3.3877 14.3263 3.3982 14.6237 3.44056 15.5572C3.48344 16.4889 3.63091 17.1249 3.84717 17.6814C4.07087 18.2571 4.36993 18.7453 4.85654 19.2318C5.34289 19.7186 5.83116 20.0184 6.40643 20.2419C6.96332 20.4584 7.59941 20.6058 8.53097 20.6485C9.46454 20.691 9.76264 20.7014 12.1394 20.7014C14.5165 20.7014 14.8139 20.691 15.7474 20.6485C16.6791 20.6058 17.3159 20.4584 17.8727 20.2419C18.4482 20.0184 18.9358 19.7186 19.422 19.2318C19.9089 18.7453 20.2079 18.2571 20.4322 17.6816C20.6473 17.1249 20.795 16.4887 20.8388 15.5573C20.8807 14.6238 20.8917 14.3263 20.8917 11.9493C20.8917 9.57238 20.8807 9.27411 20.8388 8.34054C20.795 7.4088 20.6473 6.77289 20.4322 6.21644C20.2079 5.64073 19.9089 5.15246 19.422 4.66593C18.9352 4.17915 18.4484 3.88009 17.8722 3.65683C17.3143 3.44031 16.6779 3.29275 15.7462 3.25013C14.8126 3.20768 14.5154 3.19727 12.1377 3.19727H12.1405ZM11.3553 4.77446C11.5884 4.77411 11.8484 4.77446 12.1405 4.77446C14.4773 4.77446 14.7542 4.78286 15.677 4.82478C16.5304 4.86382 16.9935 5.00639 17.302 5.1262C17.7105 5.28479 18.0017 5.47444 18.3078 5.78085C18.6141 6.08717 18.8037 6.37887 18.9627 6.78733C19.0825 7.0954 19.2253 7.55855 19.2641 8.41187C19.3061 9.3345 19.3152 9.61159 19.3152 11.9473C19.3152 14.283 19.3061 14.5602 19.2641 15.4828C19.2251 16.3361 19.0825 16.7992 18.9627 17.1074C18.8041 17.5159 18.6141 17.8067 18.3078 18.1128C18.0015 18.4191 17.7107 18.6087 17.302 18.7674C16.9939 18.8877 16.5304 19.0299 15.677 19.069C14.7544 19.1109 14.4773 19.12 12.1405 19.12C9.80351 19.12 9.52651 19.1109 8.60396 19.069C7.75064 19.0296 7.28749 18.887 6.97872 18.7672C6.57035 18.6085 6.27856 18.419 5.97224 18.1126C5.66592 17.8063 5.47635 17.5153 5.31733 17.1067C5.19752 16.7985 5.05477 16.3354 5.01591 15.4821C4.97399 14.5594 4.96559 14.2823 4.96559 11.9451C4.96559 9.608 4.97399 9.33231 5.01591 8.40968C5.05495 7.55636 5.19752 7.09321 5.31733 6.7847C5.476 6.37625 5.66592 6.08454 5.97233 5.77822C6.27865 5.4719 6.57035 5.28225 6.97881 5.12331C7.28731 5.00297 7.75064 4.86075 8.60396 4.82155C9.41133 4.78505 9.72422 4.77411 11.3553 4.77227V4.77446ZM16.8123 6.22764C16.2324 6.22764 15.762 6.69762 15.762 7.27753C15.762 7.85734 16.2324 8.32776 16.8123 8.32776C17.3921 8.32776 17.8625 7.85734 17.8625 7.27753C17.8625 6.69771 17.3921 6.22729 16.8123 6.22729V6.22764ZM12.1405 7.45475C9.6584 7.45475 7.64597 9.46718 7.64597 11.9493C7.64597 14.4315 9.6584 16.4429 12.1405 16.4429C14.6226 16.4429 16.6343 14.4315 16.6343 11.9493C16.6343 9.46727 14.6224 7.45475 12.1403 7.45475H12.1405ZM12.1405 9.03195C13.7516 9.03195 15.0578 10.338 15.0578 11.9493C15.0578 13.5605 13.7516 14.8667 12.1405 14.8667C10.5292 14.8667 9.22316 13.5605 9.22316 11.9493C9.22316 10.338 10.5292 9.03195 12.1405 9.03195Z" fill="white"/>
</g>
</g>
<defs>
<radialGradient id="paint0_radial_681_7026" cx="0" cy="0" r="1" gradientUnits="userSpaceOnUse" gradientTransform="translate(6.88884 24.8778) rotate(-90) scale(22.2051 20.6525)">
<stop stop-color="#FFDD55"/>
<stop offset="0.1" stop-color="#FFDD55"/>
<stop offset="0.5" stop-color="#FF543E"/>
<stop offset="1" stop-color="#C837AB"/>
</radialGradient>
<radialGradient id="paint1_radial_681_7026" cx="0" cy="0" r="1" gradientUnits="userSpaceOnUse" gradientTransform="translate(-2.81544 2.36102) rotate(78.681) scale(9.92579 40.9144)">
<stop stop-color="#3771C8"/>
<stop offset="0.128" stop-color="#3771C8"/>
<stop offset="1" stop-color="#6600FF" stop-opacity="0"/>
</radialGradient>
<clipPath id="clip0_681_7026">
<rect width="22.4051" height="22.4051" fill="white" transform="translate(0.9375 0.74707)"/>
</clipPath>
</defs>
</svg>
