<svg width="20" height="17" viewBox="0 0 20 17" fill="none" xmlns="http://www.w3.org/2000/svg">
<g id="Group">
<path id="Vector" d="M0 0.600342H18.4016C18.4743 0.600342 18.5439 0.614258 18.6073 0.64209C18.6969 0.680745 18.8655 0.849284 18.901 0.937419C18.9273 1.00081 18.9428 1.07039 18.9428 1.14307V4.81071C18.9428 4.88338 18.9289 4.95296 18.901 5.0179C18.8732 5.08439 18.833 5.14315 18.7835 5.19417L18.7773 5.19881C18.7279 5.24674 18.6707 5.2854 18.6073 5.31169C18.5439 5.33797 18.4743 5.35343 18.4016 5.35343H10.9132C10.8901 5.35343 10.873 5.33488 10.873 5.31323V1.23893H5.0376V2.30428L6.93791 4.4659C6.99202 4.52775 7.01676 4.60506 7.01213 4.68237C7.00749 4.75814 6.97347 4.83236 6.91162 4.88802L6.90853 4.88957C6.8807 4.91276 6.85132 4.93131 6.81885 4.94214C6.78638 4.95451 6.75081 4.96069 6.7168 4.96069H1.00814C0.926188 4.96069 0.850423 4.92668 0.797852 4.87256C0.743734 4.81844 0.709717 4.74422 0.709717 4.66227C0.709717 4.61898 0.718994 4.57878 0.736003 4.54167C0.753011 4.50301 0.777751 4.46899 0.808675 4.44116L2.76465 2.30273V1.23893H0V0.600342ZM4.87834 9.65812C5.05461 9.65812 5.1984 9.80192 5.1984 9.97819C5.1984 10.1545 5.05461 10.2983 4.87834 10.2983C4.70207 10.2983 4.55827 10.1545 4.55827 9.97819C4.55827 9.80192 4.70207 9.65812 4.87834 9.65812ZM2.83732 9.65812C3.01359 9.65812 3.15739 9.80192 3.15739 9.97819C3.15739 10.1545 3.01359 10.2983 2.83732 10.2983C2.66105 10.2983 2.51725 10.1545 2.51725 9.97819C2.51725 9.80192 2.66105 9.65812 2.83732 9.65812ZM5.04378 7.94027V8.27889V8.72729H18.4604C18.7572 8.72729 19.0015 8.9716 19.0015 9.26847V15.8585C19.0015 16.1554 18.7588 16.3997 18.4619 16.3997C12.4935 16.3997 6.52816 16.3997 0.558187 16.3997C0.262858 16.3997 0.0170085 16.1538 0.0170085 15.8585V9.26847C0.0170085 8.97005 0.259766 8.72729 0.558187 8.72729H2.67342C2.67342 8.46444 2.67342 8.20312 2.67342 7.94027H3.37695V8.27889H3.05534V8.72729H4.66341V8.27889H4.3418V7.94027H5.04378ZM18.4032 9.32414H13.8232V15.8028H18.4047V9.32414H18.4032ZM13.2264 9.32414H7.23169V10.7668H13.2264V9.32414ZM6.63485 9.32414H0.612305V15.8028H6.63485V9.32414ZM7.23169 15.8013H13.2264V11.3636H7.23169V15.8013ZM14.5345 9.65812C14.5778 9.65812 14.6195 9.6674 14.6567 9.68286L14.6582 9.68441C14.6969 9.69987 14.7309 9.72461 14.7603 9.75244C14.7896 9.78182 14.8128 9.81738 14.8298 9.85604C14.8453 9.89315 14.8546 9.9349 14.8546 9.97819C14.8546 10.0215 14.8453 10.0617 14.8298 10.1003C14.8128 10.139 14.7896 10.1746 14.7603 10.2039L14.7572 10.2055C14.7278 10.2333 14.6938 10.2565 14.6551 10.272C14.618 10.2874 14.5763 10.2967 14.533 10.2967C14.4897 10.2967 14.4479 10.2874 14.4108 10.272C14.3737 10.2565 14.3397 10.2333 14.3103 10.2055L14.3057 10.2024C14.2763 10.173 14.2531 10.1375 14.2376 10.0988L14.2361 10.0972C14.2206 10.0601 14.2129 10.0199 14.2129 9.97664C14.2129 9.93335 14.2222 9.8916 14.2376 9.85449C14.2531 9.81584 14.2778 9.78027 14.3072 9.75089C14.3366 9.72152 14.3722 9.69832 14.4108 9.68131L14.4124 9.67977C14.4526 9.66585 14.4928 9.65812 14.5345 9.65812ZM11.49 1.23893H11.4699V4.7535H18.349V1.23893H11.49ZM12.0776 1.63013C12.1069 1.60229 12.1409 1.5791 12.1796 1.56364C12.2167 1.54818 12.2585 1.5389 12.3018 1.5389C12.3451 1.5389 12.3868 1.54818 12.4239 1.56364L12.4255 1.56519C12.4641 1.58065 12.4981 1.60539 12.5275 1.63322C12.5569 1.6626 12.5801 1.69816 12.5971 1.73682C12.6125 1.77393 12.6218 1.81567 12.6218 1.85897C12.6218 1.90226 12.6125 1.94401 12.5971 1.98112L12.5955 1.98267C12.5801 2.01978 12.5569 2.05379 12.5291 2.08162L12.5244 2.08626C12.495 2.11409 12.461 2.13729 12.4239 2.15275C12.3868 2.16821 12.3451 2.17749 12.3018 2.17749C12.2585 2.17749 12.2167 2.16821 12.1796 2.15275C12.1409 2.13729 12.1054 2.11255 12.076 2.08317C12.0466 2.05379 12.0234 2.01823 12.0064 1.97957C11.991 1.94246 11.9817 1.90072 11.9817 1.85742C11.9817 1.81413 11.991 1.77393 12.0064 1.73527C12.0234 1.69661 12.0466 1.66105 12.076 1.63167L12.0776 1.63013Z" fill="black"/>
</g>
</svg>
