<svg width="23" height="24" viewBox="0 0 23 24" fill="none" xmlns="http://www.w3.org/2000/svg">
<g id="devicon:linkedin">
<path id="Vector" d="M20.3049 1.37313H2.10075C1.68771 1.36892 1.28987 1.52875 0.99453 1.81752C0.699189 2.1063 0.530469 2.50045 0.525391 2.91348V21.1911C0.531387 21.6035 0.700511 21.9968 0.995752 22.2848C1.29099 22.5728 1.68831 22.7322 2.10075 22.728H20.3049C20.7179 22.7312 21.1155 22.5709 21.4107 22.2819C21.7059 21.993 21.8747 21.5989 21.8802 21.1859V2.90822C21.8729 2.49641 21.7032 2.10414 21.4082 1.81669C21.1133 1.52924 20.7167 1.36983 20.3049 1.37313Z" fill="#0076B2"/>
<path id="Vector_2" d="M3.68663 9.37693H6.85659V19.5765H3.68663V9.37693ZM5.27249 4.30078C5.63607 4.30078 5.99148 4.40862 6.29376 4.61065C6.59604 4.81268 6.83161 5.09982 6.97067 5.43576C7.10972 5.7717 7.14602 6.14133 7.07496 6.4979C7.0039 6.85447 6.82868 7.18195 6.57147 7.43892C6.31426 7.69589 5.98661 7.87079 5.62997 7.94151C5.27334 8.01223 4.90374 7.97558 4.56793 7.83621C4.23213 7.69683 3.94521 7.46099 3.74346 7.15851C3.54172 6.85604 3.43422 6.50053 3.43457 6.13695C3.43504 5.6498 3.62888 5.18277 3.9735 4.83848C4.31813 4.49418 4.78534 4.30078 5.27249 4.30078ZM8.84504 9.37693H11.8837V10.7772H11.9257C12.3493 9.97556 13.3821 9.13012 14.9242 9.13012C18.1344 9.12312 18.7295 11.2358 18.7295 13.9752V19.5765H15.5596V14.6141C15.5596 13.4326 15.5386 11.9115 13.9124 11.9115C12.2863 11.9115 12.0098 13.1998 12.0098 14.5371V19.5765H8.84504V9.37693Z" fill="white"/>
</g>
</svg>
