<svg width="23" height="24" viewBox="0 0 23 24" fill="none" xmlns="http://www.w3.org/2000/svg">
<g id="uim:snapchat-square">
<path id="Vector" opacity="0.5" d="M6.91881 16.8151C6.92017 16.8213 6.92153 16.8276 6.92289 16.8338C6.94397 16.9306 6.9656 17.0299 6.9963 17.1325C7.01777 17.2324 7.11206 17.3005 7.21475 17.2884L6.91881 16.8151ZM6.91881 16.8151C6.8628 16.5602 6.82266 16.4043 6.72744 16.3894M6.91881 16.8151L6.72744 16.3894M6.72744 16.3894C5.99939 16.2776 5.48388 16.1274 5.20423 15.9485M6.72744 16.3894L5.20423 15.9485M5.20423 15.9485C5.20402 15.9484 5.20381 15.9483 5.20359 15.9481C5.27567 15.9308 5.34025 15.8901 5.38696 15.8319C5.43869 15.7675 5.46486 15.6863 5.46046 15.6038L5.22201 15.6165L5.21901 15.6167L5.12771 15.6216L5.12524 15.6217L4.96117 15.6304L5.12385 15.6206L5.12504 15.6205L5.12749 15.6204L5.22408 15.6145L5.2272 15.6143L5.46025 15.6002C5.45846 15.5706 5.45155 15.5442 5.44221 15.5222L5.20423 15.9485ZM5.20423 15.9485C5.4698 15.8993 5.72805 15.8241 5.9756 15.7249C5.86968 15.6953 5.77677 15.6649 5.69665 15.6341C5.57374 15.5869 5.49657 15.5445 5.45271 15.5132C5.43058 15.4974 5.42289 15.4888 5.42293 15.4888C5.42297 15.4888 5.43189 15.4987 5.44142 15.5203L5.20423 15.9485ZM15.1718 13.269C15.4637 13.9278 15.9025 14.5112 16.4548 14.9743C16.8194 15.2801 17.227 15.528 17.6632 15.7109C17.4367 15.7768 17.1466 15.8393 16.7903 15.8943L16.7892 15.8945C16.4537 15.9471 16.3278 16.2356 16.292 16.3251C16.2449 16.4428 16.2128 16.5878 16.187 16.7046L16.1864 16.7075C16.1833 16.7217 16.1803 16.7357 16.1773 16.7494C15.8965 16.6912 15.6109 16.6616 15.3253 16.6605H15.3235C15.109 16.6605 14.8974 16.6789 14.6878 16.7141L14.6681 16.7174L14.6488 16.7223C14.189 16.8381 13.7639 17.0571 13.402 17.3592L13.402 17.3592L13.398 17.3627C12.9703 17.7275 12.4338 17.9401 11.8725 17.9674C11.8446 17.9673 11.8234 17.9665 11.8121 17.9658L11.7643 17.9626L11.7257 17.9674L11.7245 17.9674L11.7226 17.9675C11.1613 17.9404 10.6247 17.7278 10.1972 17.3628L10.1972 17.3628L10.1937 17.3598C9.83002 17.0551 9.40366 16.8388 8.94644 16.7226L8.92708 16.7177L8.9074 16.7143C8.41279 16.6299 7.9065 16.6435 7.4173 16.7543L15.1718 13.269ZM15.1718 13.269C15.1779 13.2798 15.1842 13.2904 15.1906 13.301L15.5566 13.0779M15.1718 13.269L15.6213 13.0492L15.5566 13.0779M15.1718 13.269C15.1691 13.263 15.1665 13.257 15.1638 13.2509M15.1718 13.269L15.1638 13.2509M15.5566 13.0779L15.1644 13.2523L15.1638 13.2509M15.5566 13.0779L15.1638 13.2509M16.4154 11.3566C16.3784 11.3708 16.3238 11.389 16.2548 11.4105L16.2525 11.4112L16.2404 11.4151C16.1362 11.4481 15.9879 11.4951 15.8354 11.5612C15.9841 11.5477 16.1308 11.5195 16.2733 11.4769C16.274 11.4767 16.2747 11.4765 16.2754 11.4763C16.3305 11.4598 16.3849 11.4412 16.4386 11.4205M16.4154 11.3566L16.5969 11.8225L16.4386 11.4205M16.4154 11.3566C16.4149 11.3568 16.4143 11.357 16.4138 11.3572L16.4386 11.4205M16.4154 11.3566L16.4386 11.4205M7.76358 11.5646C7.76468 11.5647 7.76579 11.5648 7.76689 11.5649C7.76684 11.5648 7.76678 11.5648 7.76673 11.5648C7.76568 11.5647 7.76463 11.5647 7.76358 11.5646ZM7.76358 11.5646C7.7607 11.5645 7.75782 11.5643 7.75494 11.564L7.75525 11.5598C7.60365 11.4943 7.4566 11.4477 7.35296 11.4148L7.34163 11.4112L7.34163 11.4112L7.33926 11.4105C7.26238 11.3865 7.21498 11.3712 7.18433 11.3588L7.18433 11.3588L7.18058 11.3573C7.09573 11.3239 7.00914 11.283 6.94059 11.2402M7.76358 11.5646C7.61149 11.5578 7.46098 11.535 7.31445 11.497C7.31379 11.4968 7.31313 11.4966 7.31247 11.4964C7.25731 11.4821 7.20272 11.4655 7.14882 11.4468C7.14779 11.4465 7.14676 11.4461 7.14573 11.4458C7.06665 11.4182 6.98907 11.3861 6.91339 11.3494M6.91339 11.3494L6.92689 11.35L6.9424 11.3496C6.93195 11.3499 6.92155 11.3486 6.91152 11.3458C6.90628 11.3444 6.90114 11.3426 6.89616 11.3404L6.91324 11.3019L6.93993 11.2417L6.94059 11.2402M6.91339 11.3494C6.91273 11.3491 6.91207 11.3488 6.91141 11.3485C6.89806 11.342 6.88478 11.3354 6.87155 11.3286L6.91557 11.2425L6.92259 11.2287M6.91339 11.3494L6.91138 11.3494C6.8969 11.3488 6.8826 11.3528 6.87049 11.3607C6.85838 11.3687 6.84907 11.3803 6.84385 11.3938L6.37736 11.2138L6.83066 11.3002L6.86853 11.3074C6.88031 11.2455 6.86222 11.1946 6.85015 11.1733C6.84803 11.1695 6.84671 11.1677 6.84676 11.1676C6.84687 11.1675 6.85535 11.1785 6.88052 11.1985C6.89151 11.2071 6.90348 11.2158 6.91627 11.2245C6.91836 11.2259 6.92046 11.2273 6.92259 11.2287M6.94059 11.2402L7.09899 10.8834L6.9389 11.1968L6.92259 11.2287M6.94059 11.2402C6.94036 11.2401 6.94012 11.24 6.93989 11.2398C6.93398 11.2361 6.92821 11.2324 6.92259 11.2287M8.05965 13.0931L8.40223 13.3024C8.40743 13.2939 8.41253 13.2853 8.41752 13.2767C8.41924 13.273 8.42097 13.2693 8.42269 13.2655M8.05965 13.0931L8.41905 13.2728L8.42269 13.2655M8.05965 13.0931L8.03599 13.0786M8.05965 13.0931L7.97185 13.0492L8.03599 13.0786M8.42269 13.2655L8.42279 13.2653L8.42278 13.2653M8.42269 13.2655C8.42272 13.2655 8.42275 13.2654 8.42278 13.2653M8.42278 13.2653C8.42394 13.2628 8.4251 13.2603 8.42625 13.2578L8.19969 13.1538M8.42278 13.2653L8.19969 13.1538M8.19969 13.1538L7.97558 13.0417L8.03599 13.0786M8.19969 13.1538L8.03599 13.0786M7.62021 14.5121C7.62212 14.5099 7.62402 14.5077 7.62593 14.5055C7.6278 14.5032 7.62966 14.5009 7.63153 14.4986L7.24182 14.1853L7.62021 14.5121ZM14.7797 7.90735C14.7831 7.91991 14.7864 7.93248 14.7897 7.94506C14.7949 7.95646 14.8 7.96789 14.805 7.97936L15.2628 7.77839L14.7797 7.90735ZM8.7893 7.98077C8.79427 7.9694 8.79931 7.95808 8.80442 7.94678C8.80767 7.93433 8.81096 7.92188 8.81429 7.90945L8.33127 7.78026L8.7893 7.98077Z" stroke="black"/>
<path id="Vector_2" d="M16.9406 2.71484H6.67165C5.55749 2.71484 4.48896 3.15744 3.70113 3.94527C2.9133 4.7331 2.4707 5.80163 2.4707 6.91579V17.1848C2.4707 18.2989 2.9133 19.3675 3.70113 20.1553C4.48896 20.9431 5.55749 21.3857 6.67165 21.3857H16.9406C18.0548 21.3857 19.1233 20.9431 19.9112 20.1553C20.699 19.3675 21.1416 18.2989 21.1416 17.1848V6.91579C21.1416 5.80163 20.699 4.7331 19.9112 3.94527C19.1233 3.15744 18.0548 2.71484 16.9406 2.71484ZM18.6117 15.7191C18.4913 15.9992 17.8882 16.2307 16.8669 16.3885C16.7717 16.4034 16.7306 16.5584 16.6755 16.8123C16.6531 16.9169 16.6288 17.0195 16.598 17.1269C16.5886 17.1725 16.5628 17.2131 16.5255 17.241C16.4881 17.2688 16.4419 17.2821 16.3955 17.2781H16.3796C16.2822 17.2743 16.1853 17.2618 16.0902 17.2408C15.8381 17.1883 15.5813 17.1614 15.3237 17.1605C15.138 17.1605 14.9541 17.1764 14.7711 17.2072C14.3855 17.3052 14.028 17.4872 13.7227 17.743C13.2075 18.1826 12.5602 18.4376 11.8836 18.4675C11.8444 18.4675 11.8071 18.4665 11.7791 18.4647C11.7564 18.4666 11.7337 18.4675 11.7109 18.4675C11.0343 18.4378 10.3869 18.1828 9.87184 17.743C9.56696 17.4881 9.20867 17.305 8.82347 17.2072C8.64084 17.1766 8.456 17.1609 8.27081 17.1605C8.01316 17.1633 7.75736 17.1922 7.50531 17.2473C7.40989 17.2694 7.31276 17.2831 7.21498 17.2884C7.16571 17.2942 7.11605 17.2814 7.07567 17.2526C7.0353 17.2238 7.00708 17.181 6.99653 17.1325C6.96681 17.0277 6.94096 16.9218 6.91904 16.8151C6.86303 16.5602 6.82289 16.4043 6.72767 16.3894C5.70637 16.2326 5.1033 16.0001 4.98287 15.7191C4.97055 15.691 4.96328 15.661 4.9614 15.6304C4.95925 15.5901 4.97206 15.5503 4.99738 15.5188C5.02269 15.4873 5.05874 15.4662 5.09863 15.4596C5.94323 15.3068 6.70431 14.8543 7.24205 14.1853C7.53798 13.8427 7.7835 13.4609 7.97301 13.0492L7.97581 13.0417C8.03154 12.9506 8.06668 12.8484 8.07877 12.7423C8.09086 12.6362 8.07962 12.5287 8.04583 12.4274C7.91513 12.1175 7.47917 11.9793 7.1907 11.8879C7.12549 11.8685 7.06103 11.8467 6.99746 11.8225C6.74167 11.7217 6.32157 11.5079 6.37759 11.2138C6.42035 11.103 6.49671 11.0083 6.59598 10.943C6.69525 10.8777 6.81245 10.8451 6.93118 10.8497C6.98898 10.8484 7.04637 10.8599 7.09922 10.8834C7.31393 10.9935 7.55105 11.0561 7.79191 11.0663C7.93565 11.0766 8.07807 11.033 8.19146 10.944C8.18369 10.8077 8.17529 10.6714 8.16626 10.5351C8.03548 9.61508 8.09168 8.67809 8.33149 7.78026C8.61372 7.13555 9.07961 6.58826 9.671 6.20674C10.2624 5.82521 10.9531 5.62634 11.6568 5.63497L11.9322 5.6331C12.6367 5.6241 13.3283 5.82274 13.9206 6.20425C14.513 6.58576 14.9799 7.13324 15.2631 7.77839C15.5031 8.67748 15.559 9.61579 15.4274 10.537L15.4246 10.5809L15.4031 10.944C15.5058 11.0253 15.6337 11.0682 15.7653 11.0654C15.993 11.0483 16.215 10.9864 16.4188 10.8834C16.4859 10.8541 16.5584 10.8394 16.6316 10.8404C16.7157 10.8404 16.7978 10.8563 16.8753 10.8871L16.879 10.889C16.9666 10.9098 17.046 10.9563 17.107 11.0225C17.168 11.0887 17.2079 11.1715 17.2216 11.2605C17.2244 11.4033 17.1189 11.6162 16.5971 11.8225C16.5439 11.843 16.4757 11.8654 16.4039 11.8879C16.1145 11.9793 15.6794 12.1175 15.5487 12.4274C15.5149 12.5285 15.5035 12.6358 15.5155 12.7417C15.5274 12.8477 15.5623 12.9497 15.6178 13.0408L15.6215 13.0492C15.8825 13.6453 16.2777 14.1731 16.7763 14.5912C17.2749 15.0093 17.8634 15.3065 18.4959 15.4596C18.5356 15.4664 18.5715 15.4876 18.5966 15.5191C18.6217 15.5506 18.6344 15.5902 18.6322 15.6304C18.6304 15.6613 18.6231 15.6917 18.6108 15.72L18.6117 15.7191Z" fill="#FFFC00"/>
</g>
</svg>
