<svg width="23" height="23" viewBox="0 0 23 23" fill="none" xmlns="http://www.w3.org/2000/svg">
<g id="logos:tiktok-icon" clip-path="url(#clip0_681_7014)">
<path id="Vector" d="M16.8831 8.66176C18.5178 9.69278 20.5205 10.2994 22.6833 10.2994V6.62731C22.274 6.62738 21.8657 6.58968 21.4652 6.51482V9.4053C19.3025 9.4053 17.3002 8.79874 15.6651 7.7678V15.2616C15.6651 19.0104 12.2207 22.0492 7.97215 22.0492C6.3869 22.0492 4.91342 21.6263 3.68945 20.9011C5.08644 22.1614 7.03463 22.9432 9.1899 22.9432C13.4388 22.9432 16.8833 19.9045 16.8833 16.1555V8.66176H16.8831ZM18.3859 4.95705C17.5504 4.15178 17.0018 3.1111 16.8831 1.96056V1.48828H15.7289C16.0194 2.95056 17.0106 4.19984 18.3859 4.95705ZM6.37666 18.0245C5.90991 17.4845 5.6576 16.8239 5.65874 16.1447C5.65874 14.4302 7.23418 13.04 9.17791 13.04C9.54008 13.0399 9.90013 13.0889 10.2454 13.1855V9.43126C9.84192 9.38251 9.43478 9.36173 9.02781 9.36938V12.2915C8.68239 12.1948 8.32216 12.1458 7.95981 12.1461C6.01617 12.1461 4.44081 13.5361 4.44081 15.2509C4.44081 16.4634 5.22823 17.5131 6.37666 18.0245Z" fill="#FF004F"/>
<path id="Vector_2" d="M15.6653 7.76773C17.3004 8.79867 19.3026 9.40523 21.4654 9.40523V6.51474C20.2582 6.28783 19.1895 5.73126 18.3859 4.95705C17.0106 4.19976 16.0196 2.95048 15.729 1.48828H12.6971V16.1553C12.6901 17.8652 11.1174 19.2497 9.17789 19.2497C8.03506 19.2497 7.01966 18.7691 6.37665 18.0244C5.22839 17.5131 4.44089 16.4633 4.44089 15.2509C4.44089 13.5363 6.01624 12.1461 7.95988 12.1461C8.33228 12.1461 8.6912 12.1973 9.02788 12.2915V9.36946C4.85389 9.44556 1.49707 12.4546 1.49707 16.1554C1.49707 18.0028 2.33297 19.6776 3.6897 20.9013C4.91367 21.6263 6.38706 22.0493 7.9724 22.0493C12.221 22.0493 15.6654 19.0104 15.6654 15.2616V7.7678L15.6653 7.76773Z" fill="black"/>
<path id="Vector_3" d="M21.4656 7.83343V7.05203C20.377 7.05349 19.3098 6.7845 18.3862 6.27582C19.2038 7.06556 20.2804 7.61018 21.4656 7.83359V7.83343ZM15.7292 2.80697C15.7015 2.66726 15.6802 2.52661 15.6654 2.38537V1.91309H11.479V16.5803C11.4724 18.29 9.89965 19.6745 7.96003 19.6745C7.41017 19.6752 6.86782 19.5618 6.3768 19.3433C7.01981 20.0878 8.03521 20.5684 9.17805 20.5684C11.1175 20.5684 12.6904 19.1841 12.6972 17.4742V2.80705H15.7292V2.80697ZM9.0283 10.6881V9.85614C8.67848 9.81393 8.3258 9.79282 7.97272 9.79295C3.72364 9.79295 0.279297 12.8318 0.279297 16.5803C0.279297 18.9304 1.63297 21.0016 3.69003 22.2199C2.3333 20.9963 1.4974 19.3214 1.4974 17.4741C1.4974 13.7734 4.85413 10.7642 9.0283 10.6881Z" fill="#00F2EA"/>
</g>
<defs>
<clipPath id="clip0_681_7014">
<rect width="22.4051" height="22.4051" fill="white" transform="translate(0.279297 0.594727)"/>
</clipPath>
</defs>
</svg>
