<svg width="25" height="19" viewBox="0 0 25 19" fill="none" xmlns="http://www.w3.org/2000/svg">
<g id="logos:twitter" clip-path="url(#clip0_681_7018)">
<path id="Vector" d="M24.0892 2.36224C23.1942 2.74162 22.245 2.99064 21.273 3.10103C22.2855 2.52036 23.0628 1.60084 23.4289 0.505243C22.4664 1.05178 21.4134 1.43685 20.3154 1.64381C19.421 0.731973 18.1468 0.162109 16.7365 0.162109C14.0286 0.162109 11.8332 2.2629 11.8332 4.85395C11.8332 5.22174 11.8766 5.57979 11.9602 5.92328C7.88526 5.72755 4.27245 3.85966 1.8541 1.02097C1.43214 1.71394 1.19035 2.52 1.19035 3.37976C1.19035 5.00761 2.05602 6.44366 3.37158 7.2851C2.59295 7.26176 1.83146 7.06052 1.15067 6.69817C1.15039 6.71782 1.15039 6.73748 1.15039 6.75722C1.15039 9.03051 2.84048 10.9269 5.08342 11.3579C4.3614 11.5458 3.60406 11.5733 2.86924 11.4383C3.49312 13.3024 5.30392 14.6588 7.44939 14.6968C5.77134 15.9552 3.65715 16.7053 1.36007 16.7053C0.964245 16.7053 0.574023 16.6831 0.19043 16.6397C2.36027 17.971 4.9375 18.7478 7.7064 18.7478C16.7251 18.7478 21.6567 11.5983 21.6567 5.39809C21.6567 5.19458 21.6521 4.99224 21.6425 4.79106C22.6024 4.12702 23.4309 3.30455 24.0892 2.36224Z" fill="#55ACEE"/>
</g>
<defs>
<clipPath id="clip0_681_7018">
<rect width="23.8987" height="18.6709" fill="white" transform="translate(0.19043 0.0888672)"/>
</clipPath>
</defs>
</svg>
