<svg width="26" height="25" viewBox="0 0 26 25" fill="none" xmlns="http://www.w3.org/2000/svg">
<g id="openmoji:youtube">
<path id="Vector" d="M22.3962 7.49868C22.2837 7.07493 22.0618 6.68818 21.7528 6.37718C21.4438 6.06617 21.0584 5.84182 20.6354 5.72659C19.0824 5.30762 12.855 5.30762 12.855 5.30762C12.855 5.30762 6.6275 5.30762 5.07449 5.72659C4.65147 5.84182 4.26615 6.06617 3.95712 6.37718C3.6481 6.68818 3.42622 7.07493 3.3137 7.49868C2.89746 9.06162 2.89746 12.323 2.89746 12.323C2.89746 12.323 2.89746 15.5845 3.3137 17.1478C3.42622 17.5715 3.6481 17.9583 3.95712 18.2693C4.26615 18.5803 4.65147 18.8046 5.07449 18.9198C6.6275 19.3385 12.855 19.3385 12.855 19.3385C12.855 19.3385 19.0824 19.3385 20.6354 18.9198C21.0584 18.8046 21.4438 18.5803 21.7528 18.2693C22.0618 17.9583 22.2837 17.5715 22.3962 17.1478C22.8125 15.5845 22.8124 12.323 22.8124 12.323C22.8124 12.323 22.8125 9.06162 22.3962 7.49868Z" fill="#EA5A47"/>
<path id="Vector_2" d="M10.8184 15.2841L16.0234 12.3232L10.8184 9.3623V15.2841Z" fill="white"/>
</g>
</svg>
